<?xml version="1.0" encoding="utf-8"?>
<!-- Generator: Adobe Illustrator 23.0.3, SVG Export Plug-In . SVG Version: 6.00 Build 0)  -->
<svg version="1.1" id="Layer_1" xmlns="http://www.w3.org/2000/svg" xmlns:xlink="http://www.w3.org/1999/xlink" x="0px" y="0px"
	 viewBox="0 0 200 200" style="enable-background:new 0 0 200 200;" xml:space="preserve">
<style type="text/css">
	.st0{fill:#0F384D;}
	.st1{fill:#377089;}
	.st2{fill:#6BB2B2;}
</style>
<g id="Icon_2_">
	<g>
		<g>
			<g>
				<g>
					<path class="st0" d="M92.2,93.3l-1.1,1.3L92.2,93.3L92.2,93.3z"/>
					<path class="st1" d="M198.6,13.5V145c0,1.4-0.2,2.7-0.7,4c-0.5,1.5-1.3,2.8-2.4,4c-2.3,2.6-5.5,4-8.9,4H82.1
						c-3.2-0.2-6.2-1.7-8.3-4c-1.1-1.2-1.9-2.6-2.4-4c-0.4-1.1-0.6-2.2-0.7-3.5v-9.8h0v-4.7c0-2.7,0.9-5.2,2.5-7.4
						c0-0.1,0.1-0.1,0.2-0.2l1.6-2l43.9-51.6c0.2-0.2,0.3-0.5,0.3-0.8V54.8c-0.2-0.8-1.2-1.6-1.8-1.6H86.2V43l32.1,0
						c1,0.1,1.9,0.3,2.7,0.6h0l0.3,0.1c3.4,1.2,6.1,3.9,7.3,7.4c0.3,1,0.5,1.9,0.6,2.9c0,0.1,0,0.3,0,0.5v15c0,1.2-0.2,2.2-0.5,3.1
						c0,0.2-0.1,0.3-0.2,0.5c-0.3,0.8-0.7,1.6-1.2,2.4l-0.1,0.1l-1.2,1.5l-45.1,53.2c-0.2,0.3-0.3,0.6-0.3,0.9v14.1
						c0.1,0.9,0.8,1.5,1.6,1.6l0.1,0l0.4,0l0.1,0h103.4c0.9,0,1.7-0.7,1.8-1.7l0-0.2V13.5c0-0.9-0.8-1.8-1.6-1.8h-104
						c-1,0-1.8,0.8-1.8,1.8v55.5c0,0.3,0.1,0.6,0.3,0.8l0.3,0.3l15.1,18l-1.1,1.2v0l-1.1,1.3l-2.2,2.6l-1.1,1.3v0L90,95.9L73.9,77.1
						l-1.3-1.7c-0.5-0.7-0.9-1.5-1.2-2.4c-0.1-0.1-0.1-0.2-0.1-0.3l0-0.1c-0.3-1-0.5-2-0.5-3.1l0-15l0-0.1c0-0.1,0-0.2,0-0.3V13.5
						c0-1.4,0.2-2.8,0.7-4c1.6-4.7,6.2-8,11.2-8l103.8,0c3.5,0,6.7,1.5,9,4c1.1,1.2,1.9,2.6,2.4,4C198.3,10.8,198.6,12.1,198.6,13.5
						z"/>
				</g>
			</g>
			<g>
				<g>
					<path class="st1" d="M129.3,162.3v24.2c0,1.3-0.3,2.6-0.8,4c-1.7,4.8-6.3,8-11.4,8H13.5c-5.1,0-9.7-3.2-11.3-8
						c-0.5-1.2-0.7-2.6-0.7-4V55c0-1.4,0.2-2.8,0.7-4c1.2-3.4,3.9-6.1,7.3-7.3c1.3-0.5,2.7-0.7,4-0.7h51.9v10.2l-51.9,0h-0.1
						c-1,0.1-1.6,0.8-1.7,1.7V55l0,0.3v131.2c0,1,0.8,1.8,1.8,1.8h103.7c1.1,0,1.9-0.8,1.9-1.8v-24.2H129.3z"/>
				</g>
			</g>
			<g>
				<path class="st1" d="M129.3,131.1l0,10.4h-10.2v-10.5c0-0.1,0-0.1,0-0.2l0-0.1c0,0,0,0,0-0.2c-0.1-0.2-0.1-0.3-0.2-0.4
					c0,0,0,0,0,0l-0.1-0.1l-0.2-0.3l-6-7.7l-9-10.5l1.1-1.3l1.1-1.3l2.2-2.6l1.1-1.3l1.1-1.3l15.1,17.4l1.5,2c0,0,0.1,0.1,0.1,0.1
					l0.1,0.1c0.8,1,1.4,2.2,1.8,3.4C129.1,128.4,129.3,129.8,129.3,131.1z"/>
			</g>
		</g>
		<g>
			<g>
				<g>
					<rect x="139.9" y="63.8" class="st2" width="37.9" height="10.2"/>
				</g>
			</g>
			<g>
				<g>
					<rect x="139.9" y="43" class="st2" width="37.9" height="10.2"/>
				</g>
			</g>
			<g>
				<g>
					<rect x="91.5" y="22.2" class="st2" width="86.3" height="10.2"/>
				</g>
			</g>
			<g>
				<g>
					<polygon class="st2" points="177.8,105.3 177.8,115.5 139.9,115.5 139.9,105.3 					"/>
				</g>
			</g>
			<g>
				<g>
					<rect x="139.9" y="126" class="st2" width="37.9" height="10.2"/>
				</g>
			</g>
			<g>
				<g>
					<rect x="139.9" y="84.5" class="st2" width="37.9" height="10.2"/>
				</g>
			</g>
			<g>
				<g>
					<rect x="22.3" y="84.5" class="st2" width="37.9" height="10.2"/>
				</g>
			</g>
			<g>
				<g>
					<rect x="22.3" y="63.8" class="st2" width="37.9" height="10.2"/>
				</g>
			</g>
			<g>
				<g>
					<rect x="22.3" y="126" class="st2" width="37.9" height="10.2"/>
				</g>
			</g>
			<g>
				<g>
					<polygon class="st2" points="60.1,146.8 60.1,157 22.3,157 22.3,146.8 					"/>
				</g>
			</g>
			<g>
				<g>
					<rect x="22.3" y="167.5" class="st2" width="86.3" height="10.2"/>
				</g>
			</g>
			<g>
				<g>
					<polygon class="st2" points="60.1,105.3 60.1,115.5 22.3,115.5 22.3,105.3 					"/>
				</g>
			</g>
		</g>
	</g>
</g>
</svg>
